<?xml version="1.0" standalone="no"?>
<!DOCTYPE svg PUBLIC "-//W3C//DTD SVG 20010904//EN"
 "http://www.w3.org/TR/2001/REC-SVG-20010904/DTD/svg10.dtd">
<svg version="1.0" xmlns="http://www.w3.org/2000/svg"
 width="312.000000pt" height="191.000000pt" viewBox="0 0 312.000000 191.000000"
 preserveAspectRatio="xMidYMid meet">
<metadata>
Created by potrace 1.16, written by Peter Selinger 2001-2019
</metadata>
<g transform="translate(0.000000,191.000000) scale(0.100000,-0.100000)"
fill="#000000" stroke="none">
<path d="M0 955 l0 -955 1560 0 1560 0 0 955 0 955 -1560 0 -1560 0 0 -955z
m1923 307 l357 -357 -359 -359 c-313 -313 -361 -357 -377 -348 -27 15 -359
350 -353 356 3 3 86 -76 184 -174 l180 -180 352 352 353 353 -352 352 -353
353 -175 -173 -175 -172 175 178 c96 97 177 177 180 177 3 0 166 -161 363
-358z m-298 98 l0 -125 -70 0 -70 0 -3 114 c-1 63 0 121 3 128 3 10 22 13 72
11 l68 -3 0 -125z m-19 -829 c20 16 35 1 28 -27 -5 -20 -2 -26 15 -31 25 -6
25 -38 1 -38 -11 0 -14 -10 -12 -34 2 -32 1 -32 -29 -26 -25 6 -31 4 -36 -14
-7 -27 -29 -27 -36 0 -5 17 -11 20 -31 15 -28 -7 -44 10 -27 27 13 13 -4 37
-25 37 -20 0 -17 19 4 27 25 9 33 25 20 41 -16 18 6 40 24 24 16 -13 32 -4 42
23 7 19 9 19 28 -8 16 -21 23 -25 34 -16z"/>
</g>
</svg>
